<mxfile host="app.diagrams.net" modified="2021-05-13T03:51:39.211Z" agent="5.0 (Windows NT 10.0; Win64; x64) AppleWebKit/537.36 (KHTML, like Gecko) Chrome/90.0.4430.212 Safari/537.36" etag="FMgXBZTqmNhwjbOYw1wZ" version="14.6.12" type="github">
  <diagram name="Page-1" id="74e2e168-ea6b-b213-b513-2b3c1d86103e">
    <mxGraphModel dx="934" dy="479" grid="1" gridSize="10" guides="1" tooltips="1" connect="1" arrows="1" fold="1" page="1" pageScale="1" pageWidth="1100" pageHeight="850" background="#ffffff" math="1" shadow="0">
      <root>
        <mxCell id="0" />
        <mxCell id="1" parent="0" />
        <mxCell id="7uvec1KDapdAAiDeNroC-57" value="" style="edgeStyle=orthogonalEdgeStyle;rounded=0;orthogonalLoop=1;jettySize=auto;html=1;" edge="1" parent="1" source="7uvec1KDapdAAiDeNroC-55" target="7uvec1KDapdAAiDeNroC-56">
          <mxGeometry relative="1" as="geometry" />
        </mxCell>
        <mxCell id="7uvec1KDapdAAiDeNroC-55" value="start" style="ellipse;whiteSpace=wrap;html=1;" vertex="1" parent="1">
          <mxGeometry x="500" y="90" width="120" height="70" as="geometry" />
        </mxCell>
        <mxCell id="7uvec1KDapdAAiDeNroC-60" value="" style="edgeStyle=orthogonalEdgeStyle;rounded=0;orthogonalLoop=1;jettySize=auto;html=1;" edge="1" parent="1" source="7uvec1KDapdAAiDeNroC-56" target="7uvec1KDapdAAiDeNroC-58">
          <mxGeometry relative="1" as="geometry" />
        </mxCell>
        <mxCell id="7uvec1KDapdAAiDeNroC-56" value="初始化/載入畫面" style="shape=parallelogram;perimeter=parallelogramPerimeter;whiteSpace=wrap;html=1;fixedSize=1;" vertex="1" parent="1">
          <mxGeometry x="500" y="200" width="120" height="60" as="geometry" />
        </mxCell>
        <mxCell id="7uvec1KDapdAAiDeNroC-73" value="" style="edgeStyle=elbowEdgeStyle;rounded=0;orthogonalLoop=1;jettySize=auto;elbow=vertical;html=1;" edge="1" parent="1" source="7uvec1KDapdAAiDeNroC-58" target="7uvec1KDapdAAiDeNroC-72">
          <mxGeometry relative="1" as="geometry" />
        </mxCell>
        <mxCell id="7uvec1KDapdAAiDeNroC-58" value="進入故事" style="rounded=1;whiteSpace=wrap;html=1;" vertex="1" parent="1">
          <mxGeometry x="500" y="300" width="120" height="60" as="geometry" />
        </mxCell>
        <mxCell id="7uvec1KDapdAAiDeNroC-72" value="if 血量歸零" style="rhombus;whiteSpace=wrap;html=1;" vertex="1" parent="1">
          <mxGeometry x="490" y="410" width="140" height="80" as="geometry" />
        </mxCell>
      </root>
    </mxGraphModel>
  </diagram>
</mxfile>
